<?xml version="1.0" encoding="UTF-8"?>
<!DOCTYPE svg PUBLIC "-//W3C//DTD SVG 1.1//EN" "http://www.w3.org/Graphics/SVG/1.1/DTD/svg11.dtd">
<svg xmlns="http://www.w3.org/2000/svg" version="1.1" width="640px" height="98px" style="shape-rendering:geometricPrecision; text-rendering:geometricPrecision; image-rendering:optimizeQuality; fill-rule:evenodd; clip-rule:evenodd" xmlns:xlink="http://www.w3.org/1999/xlink">
<g><path style="opacity:0.972" fill="#7f807f" d="M 453.5,15.5 C 458.5,15.5 463.5,15.5 468.5,15.5C 468.5,19.5 468.5,23.5 468.5,27.5C 463.5,27.5 458.5,27.5 453.5,27.5C 453.5,23.5 453.5,19.5 453.5,15.5 Z"/></g>
<g><path style="opacity:0.94" fill="#808080" d="M 83.5,17.5 C 96.5,17.5 109.5,17.5 122.5,17.5C 122.5,21.5 122.5,25.5 122.5,29.5C 112.626,29.2039 102.793,29.5372 93,30.5C 92.0546,30.9054 91.3879,31.572 91,32.5C 90.3333,42.8333 90.3333,53.1667 91,63.5C 91.5,64 92,64.5 92.5,65C 102.503,65.3236 112.503,65.1569 122.5,64.5C 122.5,68.5 122.5,72.5 122.5,76.5C 110.212,78.0327 97.8783,78.5327 85.5,78C 81.3359,77.177 78.1692,75.0103 76,71.5C 74.3838,56.9018 74.0505,42.2351 75,27.5C 76.2613,22.7452 79.0947,19.4118 83.5,17.5 Z"/></g>
<g><path style="opacity:0.955" fill="#808080" d="M 315.5,17.5 C 320.833,17.5 326.167,17.5 331.5,17.5C 331.5,33.1667 331.5,48.8333 331.5,64.5C 341.833,64.5 352.167,64.5 362.5,64.5C 362.5,68.5 362.5,72.5 362.5,76.5C 346.833,76.5 331.167,76.5 315.5,76.5C 315.5,56.8333 315.5,37.1667 315.5,17.5 Z"/></g>
<g><path style="opacity:0.965" fill="#808080" d="M 150.5,30.5 C 153.833,30.5 157.167,30.5 160.5,30.5C 160.5,35.1667 160.5,39.8333 160.5,44.5C 154.672,44.0497 149.005,44.7164 143.5,46.5C 142.501,56.4778 142.168,66.4778 142.5,76.5C 137.5,76.5 132.5,76.5 127.5,76.5C 127.5,61.5 127.5,46.5 127.5,31.5C 132.167,31.5 136.833,31.5 141.5,31.5C 141.343,32.8734 141.51,34.2068 142,35.5C 144.682,33.415 147.516,31.7483 150.5,30.5 Z"/></g>
<g><path style="opacity:0.935" fill="#808080" d="M 173.5,30.5 C 182.506,30.3336 191.506,30.5002 200.5,31C 205.235,32.0681 208.402,34.9014 210,39.5C 210.667,49.1667 210.667,58.8333 210,68.5C 209.27,72.8963 206.77,75.7296 202.5,77C 192.167,77.6667 181.833,77.6667 171.5,77C 167.23,75.7296 164.73,72.8963 164,68.5C 163.333,58.8333 163.333,49.1667 164,39.5C 165.75,34.9147 168.916,31.9147 173.5,30.5 Z M 182.5,42.5 C 186.548,42.3946 190.548,42.7279 194.5,43.5C 194.666,50.5079 194.5,57.5079 194,64.5C 189.333,65.8333 184.667,65.8333 180,64.5C 179.5,57.5079 179.334,50.5079 179.5,43.5C 180.791,43.7373 181.791,43.404 182.5,42.5 Z"/></g>
<g><path style="opacity:0.917" fill="#808080" d="M 433.5,30.5 C 437.167,30.5 440.833,30.5 444.5,30.5C 444.5,35.1667 444.5,39.8333 444.5,44.5C 438.672,44.0497 433.005,44.7164 427.5,46.5C 426.501,56.4778 426.168,66.4778 426.5,76.5C 421.167,76.5 415.833,76.5 410.5,76.5C 410.5,61.5 410.5,46.5 410.5,31.5C 415.214,31.1734 419.88,31.5067 424.5,32.5C 425,33.5 425.5,34.5 426,35.5C 428.479,33.6859 430.979,32.0192 433.5,30.5 Z"/></g>
<g><path style="opacity:0.931" fill="#808080" d="M 222.5,31.5 C 233.833,31.5 245.167,31.5 256.5,31.5C 256.5,35.5 256.5,39.5 256.5,43.5C 248.16,43.3336 239.827,43.5003 231.5,44C 230.209,46.0902 230.876,47.4236 233.5,48C 240.167,48.3333 246.833,48.6667 253.5,49C 258.995,51.9844 261.662,56.6511 261.5,63C 259.565,76.3238 251.898,81.1572 238.5,77.5C 230.821,77.3219 223.154,76.9885 215.5,76.5C 215.5,72.5 215.5,68.5 215.5,64.5C 225.162,65.196 234.829,65.3627 244.5,65C 245.38,63.6439 245.714,62.1439 245.5,60.5C 238.159,60.6663 230.826,60.4997 223.5,60C 215.66,55.8488 212.827,49.3488 215,40.5C 215.923,36.0856 218.423,33.0856 222.5,31.5 Z"/></g>
<g><path style="opacity:0.935" fill="#808080" d="M 270.5,31.5 C 282.167,31.5 293.833,31.5 305.5,31.5C 305.5,35.5 305.5,39.5 305.5,43.5C 296.833,43.5 288.167,43.5 279.5,43.5C 279.227,45.451 279.893,46.951 281.5,48C 289.271,48.0664 296.938,48.7331 304.5,50C 306.81,51.6374 308.31,53.804 309,56.5C 309.667,61.1667 309.667,65.8333 309,70.5C 307.5,73.3333 305.333,75.5 302.5,77C 289.819,77.655 277.152,77.4883 264.5,76.5C 264.5,72.5 264.5,68.5 264.5,64.5C 273.83,65.1667 283.163,65.3333 292.5,65C 294.037,63.8904 294.703,62.3904 294.5,60.5C 287.159,60.6663 279.826,60.4997 272.5,60C 268,58.8333 265.167,56 264,51.5C 261.712,43.1799 263.878,36.5133 270.5,31.5 Z"/></g>
<g><path style="opacity:0.937" fill="#808080" d="M 357.5,32.5 C 362.985,31.3483 368.651,31.1816 374.5,32C 377.858,40.406 381.025,48.906 384,57.5C 387.119,49.3113 389.952,40.978 392.5,32.5C 398.137,31.3368 403.804,31.1701 409.5,32C 403.064,49.973 396.231,67.8064 389,85.5C 387.039,88.1353 384.539,89.9686 381.5,91C 375.509,91.4995 369.509,91.6662 363.5,91.5C 363.5,87.5 363.5,83.5 363.5,79.5C 367.548,79.6054 371.548,79.2721 375.5,78.5C 375.662,76.4727 375.495,74.4727 375,72.5C 369.391,58.9598 363.558,45.6265 357.5,32.5 Z"/></g>
<g><path style="opacity:0.933" fill="#808080" d="M 483.5,31.5 C 494.5,31.5 505.5,31.5 516.5,31.5C 516.5,35.5 516.5,39.5 516.5,43.5C 508.493,43.3336 500.493,43.5003 492.5,44C 491.167,51 491.167,58 492.5,65C 500.505,65.3571 508.505,65.1904 516.5,64.5C 516.5,68.5 516.5,72.5 516.5,76.5C 505.183,77.4931 493.85,77.6598 482.5,77C 479.272,75.4371 477.105,72.9371 476,69.5C 475.333,59.8333 475.333,50.1667 476,40.5C 476.923,36.0856 479.423,33.0856 483.5,31.5 Z"/></g>
<g><path style="opacity:0.927" fill="#808080" d="M 527.5,31.5 C 539.167,31.5 550.833,31.5 562.5,31.5C 562.793,35.4367 562.46,39.27 561.5,43C 553.167,43.3333 544.833,43.6667 536.5,44C 535.209,46.0902 535.876,47.4236 538.5,48C 545.167,48.3333 551.833,48.6667 558.5,49C 564.471,51.666 567.137,56.3326 566.5,63C 567.137,69.6674 564.471,74.334 558.5,77C 545.819,77.655 533.152,77.4883 520.5,76.5C 520.5,72.5 520.5,68.5 520.5,64.5C 530.162,65.196 539.829,65.3627 549.5,65C 550.38,63.6439 550.714,62.1439 550.5,60.5C 543.492,60.6663 536.492,60.4996 529.5,60C 522.512,58.0475 519.179,53.3808 519.5,46C 519.467,39.557 522.134,34.7237 527.5,31.5 Z"/></g>
<g><path style="opacity:0.958" fill="#808080" d="M 446.5,32.5 C 453.833,32.5 461.167,32.5 468.5,32.5C 468.5,47.1667 468.5,61.8333 468.5,76.5C 463.5,76.5 458.5,76.5 453.5,76.5C 453.5,65.8333 453.5,55.1667 453.5,44.5C 451.167,44.5 448.833,44.5 446.5,44.5C 446.5,40.5 446.5,36.5 446.5,32.5 Z"/></g>
</svg>
